<?xml version="1.0" standalone="no"?><!DOCTYPE svg PUBLIC "-//W3C//DTD SVG 1.1//EN" "http://www.w3.org/Graphics/SVG/1.1/DTD/svg11.dtd"><svg t="1587576464149" class="icon" viewBox="0 0 1024 1024" version="1.1" xmlns="http://www.w3.org/2000/svg" p-id="2044" xmlns:xlink="http://www.w3.org/1999/xlink" width="200" height="200"><defs><style type="text/css"></style></defs><path d="M530.88 907.2a710.56 710.56 0 0 1-134.72-13.6l-8.16-1.6C230.08 857.92 128 714.4 128 526.56a393.44 393.44 0 0 1 7.04-74.08l11.04-39.84a8 8 0 0 1 6.24-5.76C154.24 406.56 349.92 368 426.08 224a8 8 0 0 1 5.44-4.16 8 8 0 0 1 6.56 1.6c2.72 2.24 276 217.28 455.04 217.44H896a8 8 0 0 1 6.72 3.68c8.16 12.8 6.56 44.96 4.16 76.64v8.16c-6.72 119.68-33.92 205.92-83.2 263.52-79.2 91.68-193.28 116.32-292.8 116.32zM160 421.6l-9.6 34.4a378.08 378.08 0 0 0-6.4 70.56c0 180 97.28 317.28 247.68 349.76l7.68 1.6c104.96 20.64 298.08 35.2 411.84-97.76 46.88-54.88 72.96-138.08 80-254.08v-8.48a277.44 277.44 0 0 0 0-63.2C721.12 452.96 481.76 275.04 435.68 240 359.36 372.8 192 414.88 160 421.6z" p-id="2045"></path><path d="M96.8 480H96a8 8 0 0 1-6.88-8.96c6.08-48 12-80 12-80C144 163.52 291.84 44.16 516 53.12c33.12 1.28 133.28 12.64 167.04 25.6C830.08 134.72 924.8 272 936.8 444.96v0.96a216.32 216.32 0 0 1 3.36 23.36 8 8 0 1 1-16 1.92c-1.44-12.48-2.24-17.76-2.72-19.84a7.68 7.68 0 0 1-0.96-3.2c-10.88-168-101.92-300.48-243.52-354.4-30.08-11.52-125.76-23.2-162.08-24.64C300.64 60.16 158.56 176 116.64 393.6c0 0-5.92 32-11.84 78.72a8 8 0 0 1-8 7.68zM779.68 930.24a172.48 172.48 0 0 1-120.32-41.76 8 8 0 0 1 11.36-11.2c2.4 2.4 59.52 58.24 173.76 28.16 88.8-23.52 93.76-214.56 88.8-326.4a8 8 0 0 1 7.68-8.32 7.36 7.36 0 0 1 8.32 7.68C955.68 720 944 896 848 920.96a269.6 269.6 0 0 1-68.32 9.28zM231.84 917.28c-12.48 0-25.12 0-38.08-1.44-88.16-7.04-128-123.04-115.36-336a7.52 7.52 0 0 1 8.48-7.52 8 8 0 0 1 7.52 8.48c-8.32 141.28 1.6 311.04 100.8 319.04 70.56 5.44 141.12-6.08 164.16-27.04a8 8 0 0 1 10.88 11.84c-22.4 20.32-76.48 32.64-138.4 32.64z" p-id="2046"></path><path d="M144 610.24h-2.56l-9.28-3.2a91.04 91.04 0 0 1-45.28-16 120.64 120.64 0 0 1-38.4-32 75.68 75.68 0 0 1-13.12-58.4 48 48 0 0 1 55.04-39.84 98.72 98.72 0 0 1 52.32 41.6 8 8 0 0 1 1.6 4.8 461.6 461.6 0 0 0 6.88 92.16 8 8 0 0 1-7.52 10.88z m-62.24-134.4a32.8 32.8 0 0 0-31.04 27.04 59.68 59.68 0 0 0 10.56 45.6A105.6 105.6 0 0 0 94.88 576a72.8 72.8 0 0 0 38.08 14.24A652.32 652.32 0 0 1 128 509.76a77.44 77.44 0 0 0-41.28-33.28 24.48 24.48 0 0 0-4.96-0.64zM904.32 600.96h-2.4l-5.92-1.12a8 8 0 0 1-6.56-8.96c4.16-31.04 6.72-87.52 6.72-88.16a8.16 8.16 0 0 1 1.44-4.16c13.44-19.36 25.6-36.64 45.76-41.28a40 40 0 0 1 30.72 5.76 50.24 50.24 0 0 1 21.6 32 77.44 77.44 0 0 1-12.32 57.28 114.56 114.56 0 0 1-35.84 32 83.2 83.2 0 0 1-43.2 16.64z m7.36-96c0 10.24-2.56 50.56-5.76 79.2a73.76 73.76 0 0 0 32-13.92 99.52 99.52 0 0 0 32-27.2 61.44 61.44 0 0 0 9.76-44.96 34.4 34.4 0 0 0-14.56-22.24 24.48 24.48 0 0 0-18.56-3.68c-13.92 3.84-23.68 17.6-34.56 33.6zM578.4 331.52a49.76 49.76 0 0 1-35.36-17.12 8 8 0 0 1 5.12-13.6 43.84 43.84 0 0 0 20.48-9.76c17.92-12.48 35.68-25.28 52.8-38.24a78.56 78.56 0 0 0 20.8-20.16 8 8 0 0 1 6.08-3.84 8.32 8.32 0 0 1 6.72 2.56c3.84 4.32 7.68 8.8 11.36 13.28s7.2 8.64 10.88 12.64a12 12 0 0 1 3.2 5.92 11.68 11.68 0 0 1-4.8 11.52 411.04 411.04 0 0 1-58.72 42.72 87.52 87.52 0 0 1-33.76 13.6z m-12.8-19.52a25.28 25.28 0 0 0 16 3.36 74.4 74.4 0 0 0 27.36-11.36 395.84 395.84 0 0 0 53.76-38.88l-8.48-10.08-4.64-5.44a125.44 125.44 0 0 1-18.56 16c-17.28 12.96-35.2 26.08-53.28 38.56a103.52 103.52 0 0 1-12.16 7.68zM663.36 378.72a49.76 49.76 0 0 1-35.36-17.12 8 8 0 0 1 5.12-13.6 44.16 44.16 0 0 0 20.48-9.76c18.08-12.64 35.84-25.6 52.8-38.24a80 80 0 0 0 20.96-20.16 8 8 0 0 1 6.08-3.84 8.32 8.32 0 0 1 6.72 2.56c4 4.32 7.68 8.8 11.52 13.28s7.2 8.64 10.88 12.64a11.2 11.2 0 0 1-1.44 17.28 409.92 409.92 0 0 1-58.88 42.88 86.72 86.72 0 0 1-33.76 13.6z m-12.8-19.52a25.6 25.6 0 0 0 16 3.36 73.28 73.28 0 0 0 27.52-11.36 391.68 391.68 0 0 0 53.92-38.88l-8.48-9.92-4.64-5.6a125.44 125.44 0 0 1-18.56 16c-17.12 12.8-34.88 25.76-53.28 38.56a106.88 106.88 0 0 1-12.48 7.84zM401.12 635.36h-106.56A70.72 70.72 0 0 1 224 564.8v-32a70.72 70.72 0 0 1 70.72-70.72h106.56a70.72 70.72 0 0 1 70.72 70.72v32a70.72 70.72 0 0 1-70.88 70.56z m-106.56-157.92A54.72 54.72 0 0 0 240 532.16v32a54.72 54.72 0 0 0 54.72 54.72h106.56a54.72 54.72 0 0 0 54.72-54.72v-32a54.72 54.72 0 0 0-54.72-54.72zM742.24 635.36h-106.56a70.72 70.72 0 0 1-70.72-70.72v-32a70.72 70.72 0 0 1 70.72-70.72h106.56a70.72 70.72 0 0 1 70.72 70.72v32a70.72 70.72 0 0 1-70.72 70.72z m-106.56-157.92a54.72 54.72 0 0 0-54.72 54.72v32a54.72 54.72 0 0 0 54.72 54.72h106.56a54.72 54.72 0 0 0 54.72-54.72v-32a54.72 54.72 0 0 0-54.72-54.72z" p-id="2047"></path><path d="M516.32 563.2a188.96 188.96 0 0 1-55.04-7.2 8 8 0 0 1 4.96-15.2 211.84 211.84 0 0 0 104.8 0 8 8 0 1 1 3.68 16 252.96 252.96 0 0 1-58.4 6.4zM231.84 556.48a7.84 7.84 0 0 1-4.16-1.12l-92.8-57.12a8 8 0 1 1 9.12-13.76l92.8 57.12a8 8 0 0 1-4.16 14.88zM809.6 556.48a8 8 0 0 1-4.16-14.88l92.8-57.12a8 8 0 0 1 8.32 13.6l-92.8 57.12a8 8 0 0 1-4.16 1.28z" p-id="2048"></path></svg>