<?xml version="1.0" standalone="no"?><!DOCTYPE svg PUBLIC "-//W3C//DTD SVG 1.1//EN" "http://www.w3.org/Graphics/SVG/1.1/DTD/svg11.dtd"><svg t="1584455910700" class="icon" viewBox="0 0 1024 1024" version="1.1" xmlns="http://www.w3.org/2000/svg" p-id="6959" xmlns:xlink="http://www.w3.org/1999/xlink" width="200" height="200"><defs><style type="text/css"></style></defs><path d="M170.666667 725.333333c-70.4 0-128 57.6-128 128s57.6 128 128 128c70.4 0 128-57.6 128-128S241.066667 725.333333 170.666667 725.333333zM170.666667 938.666667c-46.933333 0-85.333333-38.4-85.333333-85.333333s38.4-85.333333 85.333333-85.333333 85.333333 38.4 85.333333 85.333333S217.6 938.666667 170.666667 938.666667zM64 42.666667C51.2 42.666667 42.666667 51.2 42.666667 64c0 12.8 8.533333 21.333333 21.333333 21.333333 482.133333 0 874.666667 392.533333 874.666667 874.666667 0 12.8 8.533333 21.333333 21.333333 21.333333s21.333333-8.533333 21.333333-21.333333C981.333333 454.4 569.6 42.666667 64 42.666667zM64 256c-12.8 0-21.333333 8.533333-21.333333 21.333333 0 12.8 8.533333 21.333333 21.333333 21.333333 364.8 0 661.333333 296.533333 661.333333 661.333333 0 12.8 8.533333 21.333333 21.333333 21.333333 12.8 0 21.333333-8.533333 21.333333-21.333333C768 571.733333 452.266667 256 64 256zM64 469.333333c-12.8 0-21.333333 8.533333-21.333333 21.333333 0 12.8 8.533333 21.333333 21.333333 21.333333 247.466667 0 448 200.533333 448 448 0 12.8 8.533333 21.333333 21.333333 21.333333s21.333333-8.533333 21.333333-21.333333C554.666667 689.066667 334.933333 469.333333 64 469.333333z" p-id="6960"></path></svg>