<?xml version="1.0" standalone="no"?><!DOCTYPE svg PUBLIC "-//W3C//DTD SVG 1.1//EN" "http://www.w3.org/Graphics/SVG/1.1/DTD/svg11.dtd"><svg t="1584455178977" class="icon" viewBox="0 0 1024 1024" version="1.1" xmlns="http://www.w3.org/2000/svg" p-id="2362" xmlns:xlink="http://www.w3.org/1999/xlink" width="200" height="200"><defs><style type="text/css"></style></defs><path d="M970.105263 463.494737c10.778947 0 18.863158-8.084211 18.863158-18.863158s-8.084211-18.863158-18.863158-18.863158h-134.736842v-94.315789h134.736842c10.778947 0 18.863158-8.084211 18.863158-18.863158s-8.084211-18.863158-18.863158-18.863158h-134.736842V245.221053c0-32.336842-26.947368-59.284211-59.28421-59.284211H727.578947V53.894737c0-10.778947-8.084211-18.863158-18.863158-18.863158s-16.168421 8.084211-16.168421 18.863158v134.736842h-94.315789V53.894737c0-10.778947-8.084211-18.863158-18.863158-18.863158s-18.863158 8.084211-18.863158 18.863158v134.736842h-94.315789V53.894737c0-10.778947-8.084211-18.863158-18.863158-18.863158s-21.557895 8.084211-21.557895 18.863158v134.736842h-94.315789V53.894737c0-10.778947-8.084211-18.863158-18.863158-18.863158s-18.863158 8.084211-18.863158 18.863158v134.736842H245.221053C212.884211 188.631579 188.631579 212.884211 188.631579 245.221053v48.505263H53.894737c-10.778947 0-18.863158 8.084211-18.863158 18.863158s8.084211 18.863158 18.863158 18.863158h134.736842v94.315789H53.894737c-10.778947 0-18.863158 8.084211-18.863158 18.863158s8.084211 18.863158 18.863158 18.863158h134.736842v94.315789H53.894737c-10.778947 0-18.863158 8.084211-18.863158 18.863158s8.084211 18.863158 18.863158 18.863158h134.736842v94.31579H53.894737c-10.778947 0-18.863158 8.084211-18.863158 18.863157s8.084211 18.863158 18.863158 18.863158h134.736842v48.505264C188.631579 808.421053 215.578947 835.368421 247.915789 835.368421H296.421053v134.736842c0 10.778947 8.084211 18.863158 18.863158 18.863158s18.863158-8.084211 18.863157-18.863158v-134.736842h94.31579v134.736842c0 10.778947 8.084211 18.863158 18.863158 18.863158s18.863158-8.084211 18.863158-18.863158v-134.736842h94.315789v134.736842c0 10.778947 8.084211 18.863158 18.863158 18.863158s18.863158-8.084211 18.863158-18.863158v-134.736842h94.315789v134.736842c0 10.778947 8.084211 18.863158 18.863158 18.863158s18.863158-8.084211 18.863158-18.863158v-134.736842h48.505263c32.336842 0 59.284211-26.947368 59.284211-59.28421V727.578947h134.736842c10.778947 0 18.863158-8.084211 18.863158-18.863158s-8.084211-18.863158-18.863158-18.863157h-134.736842v-94.31579h134.736842c10.778947 0 18.863158-8.084211 18.863158-18.863158s-8.084211-18.863158-18.863158-18.863158h-134.736842v-94.315789H970.105263z m-172.463158 315.28421c0 10.778947-10.778947 21.557895-21.557894 21.557895H245.221053c-10.778947 0-21.557895-10.778947-21.557895-21.557895V245.221053c0-10.778947 10.778947-21.557895 21.557895-21.557895h530.863158c10.778947 0 21.557895 10.778947 21.557894 21.557895v533.557894z" fill="#101010" p-id="2363"></path></svg>