<?xml version="1.0" standalone="no"?><!DOCTYPE svg PUBLIC "-//W3C//DTD SVG 1.1//EN" "http://www.w3.org/Graphics/SVG/1.1/DTD/svg11.dtd"><svg t="1584455585407" class="icon" viewBox="0 0 1024 1024" version="1.1" xmlns="http://www.w3.org/2000/svg" p-id="3195" xmlns:xlink="http://www.w3.org/1999/xlink" width="200" height="200"><defs><style type="text/css"></style></defs><path d="M281.6 686.08l41.642667-31.402667a235.064889 235.064889 0 0 1 0-285.354666l-41.642667-31.402667a288.312889 288.312889 0 0 0 0 348.16zM748.999111 512a235.406222 235.406222 0 0 1-48.241778 142.677333l41.642667 31.402667a288.312889 288.312889 0 0 0 0-348.16l-41.642667 31.402667A235.406222 235.406222 0 0 1 748.999111 512z" fill="#37BDC4" p-id="3196"></path><path d="M131.527111 512a378.424889 378.424889 0 0 1 77.141333-229.262222L167.253333 251.448889a431.217778 431.217778 0 0 0 0 521.102222l41.415111-31.288889A378.424889 378.424889 0 0 1 131.527111 512zM856.746667 251.448889l-41.415111 31.288889a379.221333 379.221333 0 0 1 0 458.524444l41.415111 31.288889a431.217778 431.217778 0 0 0 0-521.102222zM551.822222 348.615111l-175.331555 63.829333 95.687111 262.940445 175.331555-63.829333zM450.332444 521.102222L418.019556 432.355556l44.714666-16.497778 32.312889 88.974222z" fill="#37BDC4" p-id="3197"></path></svg>