<?xml version="1.0" standalone="no"?><!DOCTYPE svg PUBLIC "-//W3C//DTD SVG 1.1//EN" "http://www.w3.org/Graphics/SVG/1.1/DTD/svg11.dtd"><svg t="1584456614702" class="icon" viewBox="0 0 1024 1024" version="1.1" xmlns="http://www.w3.org/2000/svg" p-id="12444" xmlns:xlink="http://www.w3.org/1999/xlink" width="200" height="200"><defs><style type="text/css"></style></defs><path d="M727.2 1020H296.8c-4.8 0-9.6-2.4-12.8-6.4-3.2-4-4-8.8-2.4-13.6l180-679.2c1.6-7.2 8-12 15.2-12h69.6c7.2 0 13.6 4.8 15.2 12L742.4 1000c1.6 4.8 0 9.6-2.4 13.6-3.2 4-8 6.4-12.8 6.4z m-409.6-32h388.8L534.4 340.8h-44.8l-172 647.2z" p-id="12445"></path><path d="M296.8 1012c-3.2 0-5.6-1.6-7.2-4-2.4-4-0.8-8.8 3.2-11.2l361.6-191.2-276.8-112c-3.2-0.8-4.8-4-4.8-7.2s1.6-5.6 4-7.2l210.4-123.2-153.6-72.8c-2.4-0.8-4-3.2-4.8-6.4 0-2.4 0.8-5.6 2.4-7.2L552 361.6c3.2-3.2 8-2.4 11.2 0.8 3.2 3.2 2.4 8-0.8 11.2l-112 100L608 548c2.4 1.6 4.8 4 4.8 7.2s-1.6 5.6-4 7.2L399.2 684.8l277.6 112.8c3.2 0.8 4.8 4 4.8 7.2s-1.6 6.4-4 7.2l-376.8 199.2c-1.6 0.8-2.4 0.8-4 0.8zM512 265.6c-50.4 0-91.2-40.8-91.2-91.2 0-50.4 40.8-91.2 91.2-91.2s91.2 40.8 91.2 91.2c0 50.4-40.8 91.2-91.2 91.2z m0-150.4c-32.8 0-59.2 26.4-59.2 59.2s26.4 59.2 59.2 59.2 59.2-26.4 59.2-59.2-26.4-59.2-59.2-59.2zM236.8 344.8c-4 0-8-1.6-11.2-4.8-91.2-91.2-91.2-240 0-331.2 6.4-6.4 16-6.4 22.4 0 6.4 6.4 6.4 16 0 22.4-79.2 79.2-79.2 207.2 0 285.6 6.4 6.4 6.4 16 0 22.4-2.4 4-7.2 5.6-11.2 5.6z" p-id="12446"></path><path d="M298.4 293.6c-4 0-8-1.6-11.2-4.8-30.4-30.4-47.2-71.2-47.2-115.2 0-43.2 16.8-84 47.2-115.2 6.4-6.4 16-6.4 22.4 0 6.4 6.4 6.4 16 0 22.4-24.8 24.8-38.4 57.6-38.4 92 0 35.2 13.6 68 38.4 92 6.4 6.4 6.4 16 0 22.4-2.4 4.8-7.2 6.4-11.2 6.4zM360 243.2c-4 0-8-1.6-11.2-4.8-16.8-16.8-26.4-40-26.4-64s9.6-47.2 26.4-64c6.4-6.4 16-6.4 22.4 0 6.4 6.4 6.4 16 0 22.4-11.2 11.2-17.6 25.6-17.6 41.6s6.4 30.4 17.6 41.6c6.4 6.4 6.4 16 0 22.4-2.4 3.2-7.2 4.8-11.2 4.8zM787.2 344.8c-4 0-8-1.6-11.2-4.8-6.4-6.4-6.4-16 0-22.4 79.2-79.2 79.2-207.2 0-285.6-6.4-6.4-6.4-16 0-22.4 6.4-6.4 16-6.4 22.4 0 91.2 91.2 91.2 240 0 331.2-3.2 2.4-7.2 4-11.2 4z" p-id="12447"></path><path d="M725.6 293.6c-4 0-8-1.6-11.2-4.8-6.4-6.4-6.4-16 0-22.4 51.2-51.2 51.2-133.6 0-184.8-6.4-6.4-6.4-16 0-22.4 6.4-6.4 16-6.4 22.4 0 63.2 63.2 63.2 166.4 0 229.6-3.2 3.2-7.2 4.8-11.2 4.8zM664 243.2c-4 0-8-1.6-11.2-4.8-6.4-6.4-6.4-16 0-22.4 11.2-11.2 17.6-25.6 17.6-41.6s-6.4-30.4-17.6-41.6c-6.4-6.4-6.4-16 0-22.4 6.4-6.4 16-6.4 22.4 0 16.8 16.8 26.4 40 26.4 64s-9.6 47.2-26.4 64c-3.2 3.2-7.2 4.8-11.2 4.8z" p-id="12448"></path></svg>