<?xml version="1.0" standalone="no"?><!DOCTYPE svg PUBLIC "-//W3C//DTD SVG 1.1//EN" "http://www.w3.org/Graphics/SVG/1.1/DTD/svg11.dtd"><svg t="1584456619852" class="icon" viewBox="0 0 1024 1024" version="1.1" xmlns="http://www.w3.org/2000/svg" p-id="12579" xmlns:xlink="http://www.w3.org/1999/xlink" width="200" height="200"><defs><style type="text/css"></style></defs><path d="M993.6 918.4H20c-8.8 0-16-7.2-16-16V624.8c0-8.8 7.2-16 16-16h973.6c8.8 0 16 7.2 16 16v277.6c0 8.8-7.2 16-16 16z m-957.6-32h941.6V640.8H36v245.6z" p-id="12580"></path><path d="M263.2 821.6c-32 0-57.6-25.6-57.6-57.6s25.6-57.6 57.6-57.6 57.6 25.6 57.6 57.6-26.4 57.6-57.6 57.6z m0-100c-23.2 0-41.6 18.4-41.6 41.6s18.4 41.6 41.6 41.6c23.2 0 41.6-18.4 41.6-41.6s-19.2-41.6-41.6-41.6zM477.6 821.6c-32 0-57.6-25.6-57.6-57.6s25.6-57.6 57.6-57.6 57.6 25.6 57.6 57.6-25.6 57.6-57.6 57.6z m0-100c-23.2 0-41.6 18.4-41.6 41.6s18.4 41.6 41.6 41.6c23.2 0 41.6-18.4 41.6-41.6s-18.4-41.6-41.6-41.6zM704.8 843.2c-4.8 0-8-3.2-8-8v-144c0-4.8 3.2-8 8-8s8 3.2 8 8v144c0 4.8-3.2 8-8 8zM816 843.2c-4.8 0-8-3.2-8-8v-144c0-4.8 3.2-8 8-8s8 3.2 8 8v144c0 4.8-4 8-8 8zM861.6 640.8c-8.8 0-16-7.2-16-16V402.4c0-8.8 7.2-16 16-16s16 7.2 16 16v223.2c0 8-6.4 15.2-16 15.2zM1004 196.8c-4 0-8-1.6-11.2-4.8-35.2-35.2-82.4-54.4-132-54.4-49.6 0-96.8 19.2-132 54.4-6.4 6.4-16 6.4-22.4 0-6.4-6.4-6.4-16 0-22.4 41.6-41.6 96-64 154.4-64 58.4 0 113.6 22.4 154.4 64 6.4 6.4 6.4 16 0 22.4-3.2 3.2-7.2 4.8-11.2 4.8z" p-id="12581"></path><path d="M950.4 250.4c-4 0-8-1.6-11.2-4.8-43.2-43.2-114.4-43.2-157.6 0-6.4 6.4-16 6.4-22.4 0-6.4-6.4-6.4-16 0-22.4 56-56 147.2-56 202.4 0 6.4 6.4 6.4 16 0 22.4-2.4 3.2-7.2 4.8-11.2 4.8zM860.8 412.8c-20.8 0-40-8.8-55.2-24-29.6-31.2-29.6-81.6 0-112.8 14.4-15.2 34.4-24 55.2-24 20.8 0 40 8.8 55.2 24 29.6 31.2 29.6 81.6 0 112.8-15.2 15.2-34.4 24-55.2 24z m0-128.8c-12 0-23.2 4.8-32 13.6-18.4 19.2-18.4 49.6 0 68.8 8.8 8.8 20 13.6 32 13.6s23.2-4.8 32-13.6c18.4-19.2 18.4-49.6 0-68.8-8.8-8.8-20-13.6-32-13.6z" p-id="12582"></path></svg>